<?xml version="1.0" encoding="UTF-8" standalone="no"?>
<!-- Created with Inkscape (http://www.inkscape.org/) -->

<svg
   width="210mm"
   height="210mm"
   viewBox="0 0 210 210"
   version="1.1"
   id="svg5"
   xml:space="preserve"
   inkscape:version="1.2.2 (732a01da63, 2022-12-09)"
   sodipodi:docname="rookidroid_icon.svg"
   inkscape:export-filename="rookidroid.png"
   inkscape:export-xdpi="96"
   inkscape:export-ydpi="96"
   xmlns:inkscape="http://www.inkscape.org/namespaces/inkscape"
   xmlns:sodipodi="http://sodipodi.sourceforge.net/DTD/sodipodi-0.dtd"
   xmlns="http://www.w3.org/2000/svg"
   xmlns:svg="http://www.w3.org/2000/svg"><sodipodi:namedview
     id="namedview7"
     pagecolor="#ffffff"
     bordercolor="#000000"
     borderopacity="0.25"
     inkscape:showpageshadow="2"
     inkscape:pageopacity="0.0"
     inkscape:pagecheckerboard="0"
     inkscape:deskcolor="#d1d1d1"
     inkscape:document-units="mm"
     showgrid="false"
     inkscape:zoom="0.94552219"
     inkscape:cx="238.49255"
     inkscape:cy="429.92116"
     inkscape:window-width="3840"
     inkscape:window-height="2054"
     inkscape:window-x="-11"
     inkscape:window-y="-11"
     inkscape:window-maximized="1"
     inkscape:current-layer="layer1" /><defs
     id="defs2" /><g
     inkscape:label="Layer 1"
     inkscape:groupmode="layer"
     id="layer1"><path
       id="rect2475"
       style="fill:#9c27b0;fill-opacity:1;stroke-width:2"
       d="M 53.583735,73.683943 H 156.41627 c 10.48113,0 18.91896,8.437853 18.91896,18.918956 V 148.17593 H 34.664779 V 92.602899 c 0,-10.481103 8.437854,-18.918956 18.918956,-18.918956 z"
       sodipodi:nodetypes="sssccss" /><g
       id="path2534"
       transform="matrix(2.4193258,0,0,2.4193258,-149.02921,-116.49926)"
       style="stroke-width:0.413338;fill:#9c27b0;fill-opacity:1;stroke:none"><path
         style="color:#000000;fill:#9c27b0;stroke-width:0.413338;stroke-linecap:round;-inkscape-stroke:none;fill-opacity:1;stroke:none"
         d="m 86.595703,112.57541 a 1.7,1.7 0 0 0 -1.701172,1.70117 1.7,1.7 0 0 0 1.701172,1.69922 H 123.4043 a 1.7,1.7 0 0 0 1.70117,-1.69922 1.7,1.7 0 0 0 -1.70117,-1.70117 z"
         id="path334" /></g><g
       id="path2534-0"
       transform="matrix(2.4193258,0,0,2.4193258,-149.02921,-106.52332)"
       style="stroke-width:0.413338;stroke:none;fill:#9c27b0;fill-opacity:1"><path
         style="color:#000000;fill:#9c27b0;fill-opacity:1;stroke-width:1.40536;stroke-linecap:round;-inkscape-stroke:none;stroke:none"
         d="M 92.612613,116.72756 H 117.38739"
         id="path385" /><path
         style="color:#000000;fill:#9c27b0;stroke-width:0.413338;stroke-linecap:round;-inkscape-stroke:none;stroke:none;fill-opacity:1"
         d="m 92.613281,115.02734 a 1.7,1.7 0 0 0 -1.701172,1.70118 1.7,1.7 0 0 0 1.701172,1.69921 h 24.773439 a 1.7,1.7 0 0 0 1.70117,-1.69921 1.7,1.7 0 0 0 -1.70117,-1.70118 z"
         id="path387" /></g><g
       id="path2534-0-2"
       style="stroke-width:0.413338;stroke:none;fill:#9c27b0;fill-opacity:1"
       transform="matrix(2.4193258,0,0,2.4193258,-149.0292,-110.58909)"><path
         style="color:#000000;fill:#9c27b0;fill-opacity:1;stroke-width:1.40536;stroke-linecap:round;-inkscape-stroke:none;stroke:none"
         d="M 105,72.064037 V 62.295382"
         id="path391" /><path
         style="color:#000000;fill:#9c27b0;stroke-width:0.413338;stroke-linecap:round;-inkscape-stroke:none;stroke:none;fill-opacity:1"
         d="m 105,60.595703 a 1.7,1.7 0 0 0 -1.69922,1.699219 v 9.769531 A 1.7,1.7 0 0 0 105,73.763672 1.7,1.7 0 0 0 106.69922,72.064453 V 62.294922 A 1.7,1.7 0 0 0 105,60.595703 Z"
         id="path393" /></g><circle
       style="fill:#9c27b0;fill-opacity:1;stroke:none;stroke-width:3.4;stroke-linecap:round;stroke-opacity:1"
       id="path1825"
       cx="105.00001"
       cy="39.083557"
       r="9.0755129" /><g
       id="g1836"
       transform="matrix(2.7027082,0,0,2.7027082,-149.39794,-153.58202)"
       style="stroke-width:0.369999"><circle
         style="fill:#ffffff;fill-opacity:1;stroke:none;stroke-width:1.77444;stroke-linecap:round;stroke-dasharray:none;stroke-opacity:1"
         id="path2610"
         cx="82.33931"
         cy="96.400658"
         r="4.6871142" /><circle
         style="fill:#ffffff;fill-opacity:1;stroke:none;stroke-width:1.77444;stroke-linecap:round;stroke-dasharray:none;stroke-opacity:1"
         id="path2610-5"
         cx="105.91479"
         cy="96.400658"
         r="4.6871142" /></g></g></svg>
