<?xml version="1.0" encoding="UTF-8" standalone="no"?>
<!-- Created with Inkscape (http://www.inkscape.org/) -->

<svg
   width="250mm"
   height="61.994091mm"
   viewBox="0 0 249.99999 61.994091"
   version="1.1"
   id="svg5"
   xml:space="preserve"
   inkscape:version="1.4.2 (f4327f4, 2025-05-13)"
   sodipodi:docname="rookidroid_side_header_dark.svg"
   inkscape:export-filename="..\..\..\..\OneDrive\Desktop\rookidroid.png"
   inkscape:export-xdpi="36.294983"
   inkscape:export-ydpi="36.294983"
   xmlns:inkscape="http://www.inkscape.org/namespaces/inkscape"
   xmlns:sodipodi="http://sodipodi.sourceforge.net/DTD/sodipodi-0.dtd"
   xmlns:xlink="http://www.w3.org/1999/xlink"
   xmlns="http://www.w3.org/2000/svg"
   xmlns:svg="http://www.w3.org/2000/svg"><sodipodi:namedview
     id="namedview7"
     pagecolor="#ffffff"
     bordercolor="#000000"
     borderopacity="0.25"
     inkscape:showpageshadow="2"
     inkscape:pageopacity="0.0"
     inkscape:pagecheckerboard="0"
     inkscape:deskcolor="#d1d1d1"
     inkscape:document-units="mm"
     showgrid="false"
     inkscape:zoom="1.6131248"
     inkscape:cx="496.55178"
     inkscape:cy="182.25496"
     inkscape:window-width="3840"
     inkscape:window-height="2054"
     inkscape:window-x="-11"
     inkscape:window-y="-11"
     inkscape:window-maximized="1"
     inkscape:current-layer="layer1" /><defs
     id="defs2"><linearGradient
       inkscape:collect="always"
       id="linearGradient988"><stop
         style="stop-color:#d31338;stop-opacity:1;"
         offset="0"
         id="stop984" /><stop
         style="stop-color:#e98a03;stop-opacity:1;"
         offset="1"
         id="stop986" /></linearGradient><linearGradient
       inkscape:collect="always"
       xlink:href="#linearGradient988"
       id="linearGradient990"
       x1="27.141151"
       y1="160.81094"
       x2="191.94766"
       y2="160.81094"
       gradientUnits="userSpaceOnUse"
       gradientTransform="translate(-17.419354,79.660917)" /></defs><g
     inkscape:label="Layer 1"
     inkscape:groupmode="layer"
     id="layer1"
     transform="translate(37.004585,-102.60679)"><g
       id="g1"
       transform="translate(-20.634587)"><g
         aria-label="RookiDroid"
         id="text293"
         style="font-weight:bold;font-size:27.6385px;font-family:'Atkinson Hyperlegible';-inkscape-font-specification:'Atkinson Hyperlegible Bold';fill:url(#linearGradient990);stroke-width:3.4;stroke-linecap:round" /><g
         id="g1132"
         style="font-weight:bold;font-size:27.6385px;font-family:'Atkinson Hyperlegible';-inkscape-font-specification:'Atkinson Hyperlegible Bold';fill:#434343;fill-opacity:1;stroke-width:3.19956;stroke-linecap:round"
         transform="matrix(1.0626446,0,0,1.0626446,24.776799,-15.026518)"><path
           d="m 34.038131,151.55415 v -18.46251 h 7.103094 q 2.40455,0 4.283968,0.46985 1.907056,0.46985 2.984958,1.71359 1.10554,1.24373 1.10554,3.53772 0,1.05027 -0.386939,2.10053 -0.386939,1.02263 -1.354287,1.87942 -0.939709,0.85679 -2.708573,1.32665 l 5.361869,7.43475 h -5.057845 l -5.002569,-6.9649 h -1.962333 v 6.9649 z m 4.366883,-10.61318 h 2.874404 q 1.547756,0 2.57038,-0.38694 1.050263,-0.41458 1.050263,-1.68595 0,-1.29901 -1.050263,-1.68595 -1.022624,-0.41457 -2.57038,-0.41457 h -2.874404 z"
           id="path423"
           style="fill:#434343;fill-opacity:1;stroke-width:3.19956" /><path
           d="m 58.829848,151.88582 q -1.907057,0 -3.565367,-0.77388 -1.65831,-0.77388 -2.680934,-2.37691 -1.022625,-1.63068 -1.022625,-4.0905 0,-2.48747 1.022625,-4.06286 1.022624,-1.60303 2.680934,-2.34927 1.65831,-0.77388 3.565367,-0.77388 1.879418,0 3.537728,0.77388 1.65831,0.74624 2.680934,2.34927 1.022625,1.57539 1.022625,4.06286 0,2.45982 -1.022625,4.0905 -1.022624,1.60303 -2.680934,2.37691 -1.65831,0.77388 -3.537728,0.77388 z m 0,-3.26135 q 1.271371,0 2.100526,-0.91207 0.856793,-0.91207 0.856793,-3.06787 0,-2.18344 -0.884432,-3.04024 -0.856793,-0.88443 -2.072887,-0.88443 -1.243733,0 -2.128165,0.88443 -0.856793,0.8568 -0.856793,3.04024 0,2.1558 0.856793,3.06787 0.856794,0.91207 2.128165,0.91207 z"
           id="path420"
           style="fill:#434343;fill-opacity:1;stroke-width:3.19956" /><path
           d="m 74.666708,151.88582 q -1.907056,0 -3.565366,-0.77388 -1.65831,-0.77388 -2.680935,-2.37691 -1.022624,-1.63068 -1.022624,-4.0905 0,-2.48747 1.022624,-4.06286 1.022625,-1.60303 2.680935,-2.34927 1.65831,-0.77388 3.565366,-0.77388 1.879418,0 3.537729,0.77388 1.65831,0.74624 2.680934,2.34927 1.022625,1.57539 1.022625,4.06286 0,2.45982 -1.022625,4.0905 -1.022624,1.60303 -2.680934,2.37691 -1.658311,0.77388 -3.537729,0.77388 z m 0,-3.26135 q 1.271371,0 2.100527,-0.91207 0.856793,-0.91207 0.856793,-3.06787 0,-2.18344 -0.884432,-3.04024 -0.856794,-0.88443 -2.072888,-0.88443 -1.243732,0 -2.128164,0.88443 -0.856794,0.8568 -0.856794,3.04024 0,2.1558 0.856794,3.06787 0.856793,0.91207 2.128164,0.91207 z"
           id="path417"
           style="fill:#434343;fill-opacity:1;stroke-width:3.19956" /><path
           d="m 83.953245,151.55415 v -18.46251 h 4.201052 v 9.94986 l 4.587991,-5.19604 h 4.97493 l -5.361869,5.72117 5.776446,7.98752 h -4.97493 l -3.565366,-4.97493 -1.437202,1.52012 v 3.45481 z"
           id="path414"
           style="fill:#434343;fill-opacity:1;stroke-width:3.19956" /><path
           d="m 103.3002,135.5791 q -1.02263,0 -1.76887,-0.7186 -0.7186,-0.74624 -0.7186,-1.76886 0,-1.05027 0.7186,-1.76887 0.74624,-0.7186 1.76887,-0.7186 1.05026,0 1.76886,0.7186 0.7186,0.7186 0.7186,1.76887 0,1.02262 -0.7186,1.76886 -0.7186,0.7186 -1.76886,0.7186 z m -2.12817,15.97505 v -10.50263 h -2.598016 v -3.20606 h 6.826706 v 13.70869 z"
           id="path411"
           style="fill:#434343;fill-opacity:1;stroke-width:3.19956" /><path
           d="m 107.83293,151.55415 v -18.46251 h 6.08047 q 2.26636,0 4.20105,0.46985 1.96234,0.44222 3.39954,1.52012 1.46484,1.05026 2.26636,2.84676 0.82915,1.76887 0.82915,4.39452 0,2.6533 -0.82915,4.42216 -0.80152,1.76887 -2.26636,2.84677 -1.4372,1.05026 -3.39954,1.52012 -1.93469,0.44221 -4.20105,0.44221 z m 4.36688,-3.67592 h 1.79651 q 1.18845,0 2.26635,-0.19347 1.10554,-0.19347 1.96234,-0.74624 0.88443,-0.5804 1.38192,-1.68594 0.49749,-1.10554 0.49749,-2.92969 0,-1.82414 -0.49749,-2.92968 -0.49749,-1.13318 -1.38192,-1.68595 -0.8568,-0.5804 -1.96234,-0.77387 -1.0779,-0.22111 -2.26635,-0.22111 h -1.79651 z"
           id="path408"
           style="fill:#434343;fill-opacity:1;stroke-width:3.19956" /><path
           d="m 126.9588,151.55415 v -13.70869 h 3.31662 l 0.74624,2.5151 q 0.63568,-1.65831 1.74122,-2.32163 1.10554,-0.66333 2.68094,-0.58041 v 4.20105 q -0.33166,-0.0553 -0.58041,-0.0553 -0.24875,-0.0276 -0.55277,-0.0276 -1.52012,0 -2.34927,0.71861 -0.80152,0.7186 -0.80152,2.34927 v 6.90962 z"
           id="path405"
           style="fill:#434343;fill-opacity:1;stroke-width:3.19956" /><path
           d="m 143.79063,151.88582 q -1.90705,0 -3.56536,-0.77388 -1.65831,-0.77388 -2.68094,-2.37691 -1.02262,-1.63068 -1.02262,-4.0905 0,-2.48747 1.02262,-4.06286 1.02263,-1.60303 2.68094,-2.34927 1.65831,-0.77388 3.56536,-0.77388 1.87942,0 3.53773,0.77388 1.65831,0.74624 2.68094,2.34927 1.02262,1.57539 1.02262,4.06286 0,2.45982 -1.02262,4.0905 -1.02263,1.60303 -2.68094,2.37691 -1.65831,0.77388 -3.53773,0.77388 z m 0,-3.26135 q 1.27137,0 2.10053,-0.91207 0.85679,-0.91207 0.85679,-3.06787 0,-2.18344 -0.88443,-3.04024 -0.85679,-0.88443 -2.07289,-0.88443 -1.24373,0 -2.12816,0.88443 -0.8568,0.8568 -0.8568,3.04024 0,2.1558 0.8568,3.06787 0.85679,0.91207 2.12816,0.91207 z"
           id="path402"
           style="fill:#434343;fill-opacity:1;stroke-width:3.19956" /><path
           d="m 157.08475,135.5791 q -1.02262,0 -1.76886,-0.7186 -0.7186,-0.74624 -0.7186,-1.76886 0,-1.05027 0.7186,-1.76887 0.74624,-0.7186 1.76886,-0.7186 1.05026,0 1.76887,0.7186 0.7186,0.7186 0.7186,1.76887 0,1.02262 -0.7186,1.76886 -0.71861,0.7186 -1.76887,0.7186 z m -2.12816,15.97505 v -10.50263 h -2.59802 v -3.20606 h 6.82671 v 13.70869 z"
           id="path399"
           style="fill:#434343;fill-opacity:1;stroke-width:3.19956" /><path
           d="m 167.11755,151.88582 q -1.76887,0 -3.15079,-0.88444 -1.35429,-0.88443 -2.12817,-2.5151 -0.77388,-1.65831 -0.77388,-3.89703 0,-2.23872 0.77388,-3.81411 0.77388,-1.60303 2.12817,-2.45983 1.38192,-0.85679 3.15079,-0.85679 1.13317,0 2.32163,0.58041 1.18846,0.55277 1.85178,1.68595 v -6.63324 h 4.20105 v 13.10064 q 0,1.02263 0.0829,2.43219 0.11055,1.40957 0.38694,2.92968 h -4.00759 l -0.55277,-1.85178 q -0.85679,1.18846 -2.01761,1.68595 -1.13318,0.4975 -2.26635,0.4975 z m 1.35428,-3.26135 q 1.2161,0 2.10053,-0.91207 0.91207,-0.91207 0.91207,-3.04023 0,-2.10053 -0.91207,-3.0126 -0.88443,-0.93971 -2.10053,-0.93971 -1.24373,0 -2.1558,0.99499 -0.88443,0.99498 -0.88443,2.8744 0,1.90706 0.88443,2.98496 0.91207,1.05026 2.1558,1.05026 z"
           id="path396"
           style="fill:#434343;fill-opacity:1;stroke-width:3.19956" /></g><path
         id="rect2475"
         style="fill:#9c27b0;fill-opacity:1;stroke-width:2"
         d="m 11.036009,124.4374 h 30.099818 c 3.0679,0 5.537714,2.46983 5.537714,5.53771 v 16.26663 H 5.4982952 v -16.26663 c 0,-3.06788 2.4698196,-5.53771 5.5377138,-5.53771 z"
         sodipodi:nodetypes="sssccss" /><g
         id="path2534"
         transform="matrix(0.70815396,0,0,0.70815396,-48.270245,68.769418)"
         style="fill:#9c27b0;fill-opacity:1;stroke:none;stroke-width:1.41212"><path
           style="color:#000000;fill:#9c27b0;fill-opacity:1;stroke:none;stroke-width:1.41212;stroke-linecap:round;-inkscape-stroke:none"
           d="m 86.595703,112.57541 a 1.7,1.7 0 0 0 -1.701172,1.70117 1.7,1.7 0 0 0 1.701172,1.69922 H 123.4043 a 1.7,1.7 0 0 0 1.70117,-1.69922 1.7,1.7 0 0 0 -1.70117,-1.70117 z"
           id="path334" /></g><g
         id="path2534-0"
         transform="matrix(0.70815396,0,0,0.70815396,-48.270245,71.689449)"
         style="fill:#9c27b0;fill-opacity:1;stroke:none;stroke-width:1.41212"><path
           style="color:#000000;fill:#9c27b0;fill-opacity:1;stroke:none;stroke-width:4.80122;stroke-linecap:round;-inkscape-stroke:none"
           d="M 92.612613,116.72756 H 117.38739"
           id="path385" /><path
           style="color:#000000;fill:#9c27b0;fill-opacity:1;stroke:none;stroke-width:1.41212;stroke-linecap:round;-inkscape-stroke:none"
           d="m 92.613281,115.02734 a 1.7,1.7 0 0 0 -1.701172,1.70118 1.7,1.7 0 0 0 1.701172,1.69921 h 24.773439 a 1.7,1.7 0 0 0 1.70117,-1.69921 1.7,1.7 0 0 0 -1.70117,-1.70118 z"
           id="path387" /></g><g
         id="path2534-0-2"
         transform="matrix(0.70815396,0,0,0.70815396,-48.270245,70.499368)"
         style="fill:#9c27b0;fill-opacity:1;stroke:none;stroke-width:1.41212"><path
           style="color:#000000;fill:#9c27b0;fill-opacity:1;stroke:none;stroke-width:4.80122;stroke-linecap:round;-inkscape-stroke:none"
           d="M 105,72.064037 V 62.295382"
           id="path391" /><path
           style="color:#000000;fill:#9c27b0;fill-opacity:1;stroke:none;stroke-width:1.41212;stroke-linecap:round;-inkscape-stroke:none"
           d="m 105,60.595703 a 1.7,1.7 0 0 0 -1.69922,1.699219 v 9.769531 A 1.7,1.7 0 0 0 105,73.763672 1.7,1.7 0 0 0 106.69922,72.064453 V 62.294922 A 1.7,1.7 0 0 0 105,60.595703 Z"
           id="path393" /></g><circle
         style="fill:#9c27b0;fill-opacity:1;stroke:none;stroke-width:3.39999;stroke-linecap:round;stroke-opacity:1"
         id="path1825"
         cx="26.08592"
         cy="114.30962"
         r="2.6564674" /><g
         id="g1836"
         transform="matrix(0.79110201,0,0,0.79110201,-48.378175,57.915031)"
         style="stroke-width:1.26406"><circle
           style="fill:#ffffff;fill-opacity:1;stroke:none;stroke-width:6.06217;stroke-linecap:round;stroke-dasharray:none;stroke-opacity:1"
           id="path2610"
           cx="82.33931"
           cy="96.400658"
           r="4.6871142" /><circle
           style="fill:#ffffff;fill-opacity:1;stroke:none;stroke-width:6.06217;stroke-linecap:round;stroke-dasharray:none;stroke-opacity:1"
           id="path2610-5"
           cx="105.91479"
           cy="96.400658"
           r="4.6871142" /></g></g></g></svg>
