<?xml version="1.0" encoding="UTF-8" standalone="no"?>
<!-- Created with Inkscape (http://www.inkscape.org/) -->

<svg
   width="245.86427mm"
   height="119.57098mm"
   viewBox="0 0 245.86427 119.57098"
   version="1.1"
   id="svg5"
   xml:space="preserve"
   inkscape:version="1.3.2 (091e20e, 2023-11-25, custom)"
   sodipodi:docname="rookidroid_mg90s.svg"
   inkscape:export-filename="..\..\..\..\OneDrive\Desktop\rookidroid.png"
   inkscape:export-xdpi="36.294983"
   inkscape:export-ydpi="36.294983"
   xmlns:inkscape="http://www.inkscape.org/namespaces/inkscape"
   xmlns:sodipodi="http://sodipodi.sourceforge.net/DTD/sodipodi-0.dtd"
   xmlns:xlink="http://www.w3.org/1999/xlink"
   xmlns="http://www.w3.org/2000/svg"
   xmlns:svg="http://www.w3.org/2000/svg"><sodipodi:namedview
     id="namedview7"
     pagecolor="#ffffff"
     bordercolor="#000000"
     borderopacity="0.25"
     inkscape:showpageshadow="2"
     inkscape:pageopacity="0.0"
     inkscape:pagecheckerboard="0"
     inkscape:deskcolor="#d1d1d1"
     inkscape:document-units="mm"
     showgrid="false"
     inkscape:zoom="1.6131248"
     inkscape:cx="334.44405"
     inkscape:cy="99.806288"
     inkscape:window-width="3840"
     inkscape:window-height="2054"
     inkscape:window-x="-11"
     inkscape:window-y="-11"
     inkscape:window-maximized="1"
     inkscape:current-layer="layer1" /><defs
     id="defs2"><linearGradient
       inkscape:collect="always"
       id="linearGradient988"><stop
         style="stop-color:#d31338;stop-opacity:1;"
         offset="0"
         id="stop984" /><stop
         style="stop-color:#e98a03;stop-opacity:1;"
         offset="1"
         id="stop986" /></linearGradient><linearGradient
       inkscape:collect="always"
       xlink:href="#linearGradient988"
       id="linearGradient990"
       x1="27.141151"
       y1="160.81094"
       x2="191.94766"
       y2="160.81094"
       gradientUnits="userSpaceOnUse"
       gradientTransform="translate(-14.14476,81.869518)" /></defs><g
     inkscape:label="Layer 1"
     inkscape:groupmode="layer"
     id="layer1"
     transform="translate(13.095404,-104.81539)"><g
       id="g1"
       transform="translate(114.15732,73.704542)"><rect
         style="fill:#ffffff;fill-opacity:1;stroke-width:0.499999"
         id="rect1-1"
         width="245.86427"
         height="59.785488"
         x="-127.25272"
         y="31.110849" /><rect
         style="opacity:1;fill:#9c27b0;fill-opacity:1;stroke-width:0.499999"
         id="rect1"
         width="245.86427"
         height="59.785488"
         x="-127.25272"
         y="90.896339" /></g><g
       aria-label="RookiDroid"
       id="text293"
       style="font-weight:bold;font-size:27.6385px;font-family:'Atkinson Hyperlegible';-inkscape-font-specification:'Atkinson Hyperlegible Bold';fill:url(#linearGradient990);stroke-width:3.4;stroke-linecap:round" /><g
       id="g1132"
       style="font-weight:bold;font-size:27.6385px;font-family:'Atkinson Hyperlegible';-inkscape-font-specification:'Atkinson Hyperlegible Bold';fill:#434343;fill-opacity:1;stroke-width:3.19956;stroke-linecap:round"
       transform="matrix(1.0626446,0,0,1.0626446,25.98353,-15.026518)"><path
         d="m 34.038131,151.55415 v -18.46251 h 7.103094 q 2.40455,0 4.283968,0.46985 1.907056,0.46985 2.984958,1.71359 1.10554,1.24373 1.10554,3.53772 0,1.05027 -0.386939,2.10053 -0.386939,1.02263 -1.354287,1.87942 -0.939709,0.85679 -2.708573,1.32665 l 5.361869,7.43475 h -5.057845 l -5.002569,-6.9649 h -1.962333 v 6.9649 z m 4.366883,-10.61318 h 2.874404 q 1.547756,0 2.57038,-0.38694 1.050263,-0.41458 1.050263,-1.68595 0,-1.29901 -1.050263,-1.68595 -1.022624,-0.41457 -2.57038,-0.41457 h -2.874404 z"
         id="path423"
         style="fill:#434343;fill-opacity:1;stroke-width:3.19956" /><path
         d="m 58.829848,151.88582 q -1.907057,0 -3.565367,-0.77388 -1.65831,-0.77388 -2.680934,-2.37691 -1.022625,-1.63068 -1.022625,-4.0905 0,-2.48747 1.022625,-4.06286 1.022624,-1.60303 2.680934,-2.34927 1.65831,-0.77388 3.565367,-0.77388 1.879418,0 3.537728,0.77388 1.65831,0.74624 2.680934,2.34927 1.022625,1.57539 1.022625,4.06286 0,2.45982 -1.022625,4.0905 -1.022624,1.60303 -2.680934,2.37691 -1.65831,0.77388 -3.537728,0.77388 z m 0,-3.26135 q 1.271371,0 2.100526,-0.91207 0.856793,-0.91207 0.856793,-3.06787 0,-2.18344 -0.884432,-3.04024 -0.856793,-0.88443 -2.072887,-0.88443 -1.243733,0 -2.128165,0.88443 -0.856793,0.8568 -0.856793,3.04024 0,2.1558 0.856793,3.06787 0.856794,0.91207 2.128165,0.91207 z"
         id="path420"
         style="fill:#434343;fill-opacity:1;stroke-width:3.19956" /><path
         d="m 74.666708,151.88582 q -1.907056,0 -3.565366,-0.77388 -1.65831,-0.77388 -2.680935,-2.37691 -1.022624,-1.63068 -1.022624,-4.0905 0,-2.48747 1.022624,-4.06286 1.022625,-1.60303 2.680935,-2.34927 1.65831,-0.77388 3.565366,-0.77388 1.879418,0 3.537729,0.77388 1.65831,0.74624 2.680934,2.34927 1.022625,1.57539 1.022625,4.06286 0,2.45982 -1.022625,4.0905 -1.022624,1.60303 -2.680934,2.37691 -1.658311,0.77388 -3.537729,0.77388 z m 0,-3.26135 q 1.271371,0 2.100527,-0.91207 0.856793,-0.91207 0.856793,-3.06787 0,-2.18344 -0.884432,-3.04024 -0.856794,-0.88443 -2.072888,-0.88443 -1.243732,0 -2.128164,0.88443 -0.856794,0.8568 -0.856794,3.04024 0,2.1558 0.856794,3.06787 0.856793,0.91207 2.128164,0.91207 z"
         id="path417"
         style="fill:#434343;fill-opacity:1;stroke-width:3.19956" /><path
         d="m 83.953245,151.55415 v -18.46251 h 4.201052 v 9.94986 l 4.587991,-5.19604 h 4.97493 l -5.361869,5.72117 5.776446,7.98752 h -4.97493 l -3.565366,-4.97493 -1.437202,1.52012 v 3.45481 z"
         id="path414"
         style="fill:#434343;fill-opacity:1;stroke-width:3.19956" /><path
         d="m 103.3002,135.5791 q -1.02263,0 -1.76887,-0.7186 -0.7186,-0.74624 -0.7186,-1.76886 0,-1.05027 0.7186,-1.76887 0.74624,-0.7186 1.76887,-0.7186 1.05026,0 1.76886,0.7186 0.7186,0.7186 0.7186,1.76887 0,1.02262 -0.7186,1.76886 -0.7186,0.7186 -1.76886,0.7186 z m -2.12817,15.97505 v -10.50263 h -2.598016 v -3.20606 h 6.826706 v 13.70869 z"
         id="path411"
         style="fill:#434343;fill-opacity:1;stroke-width:3.19956" /><path
         d="m 107.83293,151.55415 v -18.46251 h 6.08047 q 2.26636,0 4.20105,0.46985 1.96234,0.44222 3.39954,1.52012 1.46484,1.05026 2.26636,2.84676 0.82915,1.76887 0.82915,4.39452 0,2.6533 -0.82915,4.42216 -0.80152,1.76887 -2.26636,2.84677 -1.4372,1.05026 -3.39954,1.52012 -1.93469,0.44221 -4.20105,0.44221 z m 4.36688,-3.67592 h 1.79651 q 1.18845,0 2.26635,-0.19347 1.10554,-0.19347 1.96234,-0.74624 0.88443,-0.5804 1.38192,-1.68594 0.49749,-1.10554 0.49749,-2.92969 0,-1.82414 -0.49749,-2.92968 -0.49749,-1.13318 -1.38192,-1.68595 -0.8568,-0.5804 -1.96234,-0.77387 -1.0779,-0.22111 -2.26635,-0.22111 h -1.79651 z"
         id="path408"
         style="fill:#434343;fill-opacity:1;stroke-width:3.19956" /><path
         d="m 126.9588,151.55415 v -13.70869 h 3.31662 l 0.74624,2.5151 q 0.63568,-1.65831 1.74122,-2.32163 1.10554,-0.66333 2.68094,-0.58041 v 4.20105 q -0.33166,-0.0553 -0.58041,-0.0553 -0.24875,-0.0276 -0.55277,-0.0276 -1.52012,0 -2.34927,0.71861 -0.80152,0.7186 -0.80152,2.34927 v 6.90962 z"
         id="path405"
         style="fill:#434343;fill-opacity:1;stroke-width:3.19956" /><path
         d="m 143.79063,151.88582 q -1.90705,0 -3.56536,-0.77388 -1.65831,-0.77388 -2.68094,-2.37691 -1.02262,-1.63068 -1.02262,-4.0905 0,-2.48747 1.02262,-4.06286 1.02263,-1.60303 2.68094,-2.34927 1.65831,-0.77388 3.56536,-0.77388 1.87942,0 3.53773,0.77388 1.65831,0.74624 2.68094,2.34927 1.02262,1.57539 1.02262,4.06286 0,2.45982 -1.02262,4.0905 -1.02263,1.60303 -2.68094,2.37691 -1.65831,0.77388 -3.53773,0.77388 z m 0,-3.26135 q 1.27137,0 2.10053,-0.91207 0.85679,-0.91207 0.85679,-3.06787 0,-2.18344 -0.88443,-3.04024 -0.85679,-0.88443 -2.07289,-0.88443 -1.24373,0 -2.12816,0.88443 -0.8568,0.8568 -0.8568,3.04024 0,2.1558 0.8568,3.06787 0.85679,0.91207 2.12816,0.91207 z"
         id="path402"
         style="fill:#434343;fill-opacity:1;stroke-width:3.19956" /><path
         d="m 157.08475,135.5791 q -1.02262,0 -1.76886,-0.7186 -0.7186,-0.74624 -0.7186,-1.76886 0,-1.05027 0.7186,-1.76887 0.74624,-0.7186 1.76886,-0.7186 1.05026,0 1.76887,0.7186 0.7186,0.7186 0.7186,1.76887 0,1.02262 -0.7186,1.76886 -0.71861,0.7186 -1.76887,0.7186 z m -2.12816,15.97505 v -10.50263 h -2.59802 v -3.20606 h 6.82671 v 13.70869 z"
         id="path399"
         style="fill:#434343;fill-opacity:1;stroke-width:3.19956" /><path
         d="m 167.11755,151.88582 q -1.76887,0 -3.15079,-0.88444 -1.35429,-0.88443 -2.12817,-2.5151 -0.77388,-1.65831 -0.77388,-3.89703 0,-2.23872 0.77388,-3.81411 0.77388,-1.60303 2.12817,-2.45983 1.38192,-0.85679 3.15079,-0.85679 1.13317,0 2.32163,0.58041 1.18846,0.55277 1.85178,1.68595 v -6.63324 h 4.20105 v 13.10064 q 0,1.02263 0.0829,2.43219 0.11055,1.40957 0.38694,2.92968 h -4.00759 l -0.55277,-1.85178 q -0.85679,1.18846 -2.01761,1.68595 -1.13318,0.4975 -2.26635,0.4975 z m 1.35428,-3.26135 q 1.2161,0 2.10053,-0.91207 0.91207,-0.91207 0.91207,-3.04023 0,-2.10053 -0.91207,-3.0126 -0.88443,-0.93971 -2.10053,-0.93971 -1.24373,0 -2.1558,0.99499 -0.88443,0.99498 -0.88443,2.8744 0,1.90706 0.88443,2.98496 0.91207,1.05026 2.1558,1.05026 z"
         id="path396"
         style="fill:#434343;fill-opacity:1;stroke-width:3.19956" /></g><path
       id="rect2475"
       style="fill:#9c27b0;fill-opacity:1;stroke-width:2"
       d="m 12.24274,124.4374 h 30.099818 c 3.0679,0 5.537714,2.46983 5.537714,5.53771 v 16.26663 H 6.7050261 v -16.26663 c 0,-3.06788 2.4698196,-5.53771 5.5377139,-5.53771 z"
       sodipodi:nodetypes="sssccss" /><g
       id="path2534"
       transform="matrix(0.70815396,0,0,0.70815396,-47.063514,68.769418)"
       style="fill:#9c27b0;fill-opacity:1;stroke:none;stroke-width:1.41212"><path
         style="color:#000000;fill:#9c27b0;fill-opacity:1;stroke:none;stroke-width:1.41212;stroke-linecap:round;-inkscape-stroke:none"
         d="m 86.595703,112.57541 a 1.7,1.7 0 0 0 -1.701172,1.70117 1.7,1.7 0 0 0 1.701172,1.69922 H 123.4043 a 1.7,1.7 0 0 0 1.70117,-1.69922 1.7,1.7 0 0 0 -1.70117,-1.70117 z"
         id="path334" /></g><g
       id="path2534-0"
       transform="matrix(0.70815396,0,0,0.70815396,-47.063514,71.689449)"
       style="fill:#9c27b0;fill-opacity:1;stroke:none;stroke-width:1.41212"><path
         style="color:#000000;fill:#9c27b0;fill-opacity:1;stroke:none;stroke-width:4.80122;stroke-linecap:round;-inkscape-stroke:none"
         d="M 92.612613,116.72756 H 117.38739"
         id="path385" /><path
         style="color:#000000;fill:#9c27b0;fill-opacity:1;stroke:none;stroke-width:1.41212;stroke-linecap:round;-inkscape-stroke:none"
         d="m 92.613281,115.02734 a 1.7,1.7 0 0 0 -1.701172,1.70118 1.7,1.7 0 0 0 1.701172,1.69921 h 24.773439 a 1.7,1.7 0 0 0 1.70117,-1.69921 1.7,1.7 0 0 0 -1.70117,-1.70118 z"
         id="path387" /></g><g
       id="path2534-0-2"
       transform="matrix(0.70815396,0,0,0.70815396,-47.063514,70.499368)"
       style="fill:#9c27b0;fill-opacity:1;stroke:none;stroke-width:1.41212"><path
         style="color:#000000;fill:#9c27b0;fill-opacity:1;stroke:none;stroke-width:4.80122;stroke-linecap:round;-inkscape-stroke:none"
         d="M 105,72.064037 V 62.295382"
         id="path391" /><path
         style="color:#000000;fill:#9c27b0;fill-opacity:1;stroke:none;stroke-width:1.41212;stroke-linecap:round;-inkscape-stroke:none"
         d="m 105,60.595703 a 1.7,1.7 0 0 0 -1.69922,1.699219 v 9.769531 A 1.7,1.7 0 0 0 105,73.763672 1.7,1.7 0 0 0 106.69922,72.064453 V 62.294922 A 1.7,1.7 0 0 0 105,60.595703 Z"
         id="path393" /></g><circle
       style="fill:#9c27b0;fill-opacity:1;stroke:none;stroke-width:3.39999;stroke-linecap:round;stroke-opacity:1"
       id="path1825"
       cx="27.292652"
       cy="114.30962"
       r="2.6564674" /><g
       id="g1836"
       transform="matrix(0.79110201,0,0,0.79110201,-47.171444,57.915031)"
       style="stroke-width:1.26406"><circle
         style="fill:#ffffff;fill-opacity:1;stroke:none;stroke-width:6.06217;stroke-linecap:round;stroke-dasharray:none;stroke-opacity:1"
         id="path2610"
         cx="82.33931"
         cy="96.400658"
         r="4.6871142" /><circle
         style="fill:#ffffff;fill-opacity:1;stroke:none;stroke-width:6.06217;stroke-linecap:round;stroke-dasharray:none;stroke-opacity:1"
         id="path2610-5"
         cx="105.91479"
         cy="96.400658"
         r="4.6871142" /></g><path
       d="m 52.808459,195.71171 0.348392,-8.49204 H 52.76491 l -5.661357,15.63406 -5.661357,-15.63406 h -0.39194 l 0.348391,8.49204 v 13.54371 H 35.73729 v -30.39714 h 7.708156 l 3.745205,10.234 h 0.348391 l 3.745206,-10.234 h 7.185568 v 30.39714 h -5.661357 z m 30.550049,9.23237 h -0.391941 q -0.39194,0.95807 -0.958075,1.82905 -0.566136,0.87098 -1.393565,1.56776 -0.827429,0.65323 -1.959701,1.04517 -1.088722,0.39194 -2.482287,0.39194 -2.220994,0 -3.96295,-1.04517 -1.698407,-1.04517 -2.874227,-3.04842 -1.175821,-2.00325 -1.785505,-4.87748 -0.566136,-2.87423 -0.566136,-6.48879 0,-7.7517 2.830678,-11.8453 2.830679,-4.13714 8.75333,-4.13714 2.35164,0 4.137145,0.65323 1.785505,0.60969 3.048423,1.78551 1.306467,1.13227 2.133896,2.74358 0.827429,1.61131 1.306467,3.57101 l -6.096846,1.48066 q -0.261293,-0.95808 -0.609684,-1.82905 -0.304843,-0.91453 -0.82743,-1.61131 -0.522586,-0.69679 -1.306467,-1.08873 -0.78388,-0.43549 -1.916151,-0.43549 -2.482288,0 -3.527461,2.0468 -1.001625,2.0468 -1.001625,5.74846 v 4.96457 q 0,3.70166 1.088723,5.92265 1.132271,2.221 3.96295,2.221 2.220994,0 3.309716,-1.30647 1.088723,-1.30647 1.088723,-3.35327 v -2.22099 h -5.18232 v -4.61618 H 89.19406 v 16.24374 h -5.835552 z m 37.996912,-14.54534 q 0,3.22262 -1.00163,6.0533 -1.00162,2.83068 -2.61293,5.26942 -1.56776,2.39519 -3.57101,4.31134 -1.9597,1.91615 -3.9194,3.22262 h -9.01462 q 2.83067,-1.9597 5.05167,-3.74521 2.26454,-1.82905 3.9194,-3.61456 1.69841,-1.82905 2.74358,-3.7452 1.08872,-1.91615 1.56776,-4.13715 l -0.39194,-0.13065 q -0.39194,0.87098 -1.00162,1.69841 -0.56614,0.82743 -1.39357,1.48066 -0.78388,0.60969 -1.91615,1.00163 -1.08872,0.39194 -2.56939,0.39194 -1.91615,0 -3.57101,-0.65323 -1.65485,-0.69679 -2.87422,-1.91616 -1.175824,-1.26291 -1.872606,-3.00487 -0.696782,-1.74196 -0.696782,-3.9194 0,-2.30809 0.827429,-4.26779 0.827429,-1.9597 2.308089,-3.35327 1.52421,-1.43711 3.65811,-2.22099 2.1339,-0.78388 4.74683,-0.78388 2.74358,0 4.87748,0.87098 2.17744,0.82742 3.6581,2.43873 1.48067,1.56776 2.26455,3.78876 0.78388,2.22099 0.78388,4.96457 z m -11.54046,3.04843 q 2.22099,0 3.48391,-1.17582 1.26292,-1.21937 1.26292,-3.48392 v -0.60968 q 0,-2.26454 -1.21937,-3.48391 -1.17582,-1.26292 -3.52746,-1.26292 -2.35164,0 -3.57101,1.26292 -1.21937,1.21937 -1.21937,3.48391 v 0.60968 q 0,2.26455 1.21937,3.48392 1.26292,1.17582 3.57101,1.17582 z m 31.55167,16.33083 q -6.09685,0 -9.01462,-4.13714 -2.87423,-4.13715 -2.87423,-11.58401 0,-7.44686 2.87423,-11.58401 2.91777,-4.13714 9.01462,-4.13714 6.09685,0 8.97107,4.13714 2.91778,4.13715 2.91778,11.58401 0,7.44686 -2.91778,11.58401 -2.87422,4.13714 -8.97107,4.13714 z m 0,-5.13877 q 2.91778,0 4.05005,-2.04679 1.17582,-2.0468 1.17582,-5.70491 v -5.66136 q 0,-3.65811 -1.17582,-5.7049 -1.13227,-2.0468 -4.05005,-2.0468 -2.91778,0 -4.0936,2.0468 -1.13227,2.04679 -1.13227,5.7049 v 5.66136 q 0,3.65811 1.13227,5.70491 1.17582,2.04679 4.0936,2.04679 z m 0,-8.01299 q -1.52421,0 -2.1339,-0.60969 -0.56613,-0.60968 -0.56613,-1.48066 v -0.95808 q 0,-0.87098 0.56613,-1.48066 0.60969,-0.60968 2.1339,-0.60968 1.52421,0 2.09035,0.60968 0.60968,0.60968 0.60968,1.48066 v 0.95808 q 0,0.87098 -0.60968,1.48066 -0.56614,0.60969 -2.09035,0.60969 z m 30.94199,13.15176 q -3.8323,0 -6.66298,-1.26291 -2.83068,-1.26292 -4.57264,-3.44037 l 3.78876,-4.18069 q 1.65486,1.82905 3.61456,2.70003 2.00325,0.87098 4.05004,0.87098 2.35165,0 3.57101,-1.04518 1.21937,-1.04517 1.21937,-3.00487 0,-1.61131 -0.95807,-2.43874 -0.91453,-0.82743 -3.13552,-1.17582 l -3.17907,-0.52259 q -4.0936,-0.69678 -5.92265,-3.00487 -1.82906,-2.35164 -1.82906,-5.70491 0,-4.39843 2.87423,-6.79362 2.87423,-2.43874 8.05655,-2.43874 3.52746,0 6.14039,1.08872 2.61294,1.08872 4.22425,2.96133 l -3.70166,4.13714 q -1.21937,-1.35002 -2.87423,-2.09035 -1.65486,-0.78388 -3.7452,-0.78388 -4.39844,0 -4.39844,3.61456 0,1.56776 0.95807,2.35164 1.00163,0.78388 3.22262,1.17582 l 3.17907,0.56614 q 3.70166,0.65323 5.70491,2.78713 2.00325,2.13389 2.00325,5.74845 0,2.1339 -0.74033,3.96295 -0.74034,1.78551 -2.221,3.13552 -1.48066,1.30647 -3.65811,2.0468 -2.13389,0.74033 -5.00812,0.74033 z"
       id="text1"
       style="font-weight:bold;font-size:43.5489px;font-family:'IBM Plex Mono';-inkscape-font-specification:'IBM Plex Mono Bold';letter-spacing:5.29167px;fill:#ffffff;fill-opacity:0.996273;stroke-width:0.500001"
       aria-label="MG90S" /></g></svg>
